<svg xmlns:xlink="http://www.w3.org/1999/xlink" width="3.176ex" height="2.509ex" style="font-size: 15px; vertical-align: -0.671ex;" viewBox="0 -791.3 1367.3 1080.4" role="img" focusable="false" xmlns="http://www.w3.org/2000/svg">
<defs>
<path stroke-width="1" id="E1-MJMATHI-4C" d="M228 637Q194 637 192 641Q191 643 191 649Q191 673 202 682Q204 683 217 683Q271 680 344 680Q485 680 506 683H518Q524 677 524 674T522 656Q517 641 513 637H475Q406 636 394 628Q387 624 380 600T313 336Q297 271 279 198T252 88L243 52Q243 48 252 48T311 46H328Q360 46 379 47T428 54T478 72T522 106T564 161Q580 191 594 228T611 270Q616 273 628 273H641Q647 264 647 262T627 203T583 83T557 9Q555 4 553 3T537 0T494 -1Q483 -1 418 -1T294 0H116Q32 0 32 10Q32 17 34 24Q39 43 44 45Q48 46 59 46H65Q92 46 125 49Q139 52 144 61Q147 65 216 339T285 628Q285 635 228 637Z"></path>
<path stroke-width="1" id="E1-MJMATHI-3D6" d="M206 -10Q158 -10 136 24T114 110Q114 233 199 349L205 358H184Q144 358 121 347Q108 340 95 330T75 312T61 295T53 285Q51 284 38 284Q19 284 19 294Q19 300 38 329T93 391T164 429Q171 431 532 431Q799 431 803 430Q823 423 823 402Q823 377 801 364Q790 358 766 358Q748 358 748 357Q748 355 749 348T752 327T754 297Q754 258 738 207T693 107T618 24T520 -10Q488 -10 466 2T432 36T416 77T411 120Q411 128 410 128T404 122Q373 71 323 31T206 -10ZM714 296Q714 316 707 358H251Q250 357 244 348T230 328T212 301T193 267T176 229T164 187T159 144Q159 62 222 62Q290 62 349 127T432 285Q433 286 434 288T435 291T437 293T440 294T444 294T452 294H466Q472 288 472 286Q472 285 464 244T456 170Q456 62 534 62Q604 62 659 139T714 296Z"></path>
</defs>
<g stroke="currentColor" fill="currentColor" stroke-width="0" transform="matrix(1 0 0 -1 0 0)">
 <use xlink:href="#E1-MJMATHI-4C" x="0" y="0"></use>
 <use transform="scale(0.707)" xlink:href="#E1-MJMATHI-3D6" x="963" y="-213"></use>
</g>
</svg>